<svg width="26" height="26" viewBox="0 0 26 26" fill="none" xmlns="http://www.w3.org/2000/svg">
<path d="M11.3334 22C13.7001 21.9995 15.9985 21.2073 17.8627 19.7494L23.7241 25.6107L25.6094 23.7254L19.7481 17.864C21.2067 15.9996 21.9995 13.7006 22.0001 11.3334C22.0001 5.45202 17.2147 0.666687 11.3334 0.666687C5.45208 0.666687 0.666748 5.45202 0.666748 11.3334C0.666748 17.2147 5.45208 22 11.3334 22ZM11.3334 3.33335C15.7454 3.33335 19.3334 6.92135 19.3334 11.3334C19.3334 15.7454 15.7454 19.3334 11.3334 19.3334C6.92141 19.3334 3.33341 15.7454 3.33341 11.3334C3.33341 6.92135 6.92141 3.33335 11.3334 3.33335Z" fill="#666666"/>
</svg>
