<svg width="16" height="16" viewBox="0 0 16 16" fill="none" xmlns="http://www.w3.org/2000/svg">
<path d="M5.5 4.875C5.5 4.70924 5.43415 4.55027 5.31694 4.43306C5.19973 4.31585 5.04076 4.25 4.875 4.25C4.70924 4.25 4.55027 4.31585 4.43306 4.43306C4.31585 4.55027 4.25 4.70924 4.25 4.875V11.125C4.25 11.2908 4.31585 11.4497 4.43306 11.5669C4.55027 11.6842 4.70924 11.75 4.875 11.75C5.04076 11.75 5.19973 11.6842 5.31694 11.5669C5.43415 11.4497 5.5 11.2908 5.5 11.125V4.875ZM8.625 4.875C8.625 4.70924 8.55915 4.55027 8.44194 4.43306C8.32473 4.31585 8.16576 4.25 8 4.25C7.83424 4.25 7.67527 4.31585 7.55806 4.43306C7.44085 4.55027 7.375 4.70924 7.375 4.875V11.125C7.375 11.2908 7.44085 11.4497 7.55806 11.5669C7.67527 11.6842 7.83424 11.75 8 11.75C8.16576 11.75 8.32473 11.6842 8.44194 11.5669C8.55915 11.4497 8.625 11.2908 8.625 11.125V4.875ZM11.75 4.875C11.75 4.70924 11.6842 4.55027 11.5669 4.43306C11.4497 4.31585 11.2908 4.25 11.125 4.25C10.9592 4.25 10.8003 4.31585 10.6831 4.43306C10.5658 4.55027 10.5 4.70924 10.5 4.875V11.125C10.5 11.2908 10.5658 11.4497 10.6831 11.5669C10.8003 11.6842 10.9592 11.75 11.125 11.75C11.2908 11.75 11.4497 11.6842 11.5669 11.5669C11.6842 11.4497 11.75 11.2908 11.75 11.125V4.875ZM15.5 3.625C15.5 2.7962 15.1708 2.00134 14.5847 1.41529C13.9987 0.82924 13.2038 0.5 12.375 0.5H3.625C2.7962 0.5 2.00134 0.82924 1.41529 1.41529C0.82924 2.00134 0.5 2.7962 0.5 3.625V12.375C0.5 13.2038 0.82924 13.9987 1.41529 14.5847C2.00134 15.1708 2.7962 15.5 3.625 15.5H12.375C13.2038 15.5 13.9987 15.1708 14.5847 14.5847C15.1708 13.9987 15.5 13.2038 15.5 12.375V3.625ZM1.75 12.375V3.625C1.75 3.12772 1.94754 2.65081 2.29917 2.29917C2.65081 1.94754 3.12772 1.75 3.625 1.75H12.375C12.8723 1.75 13.3492 1.94754 13.7008 2.29917C14.0525 2.65081 14.25 3.12772 14.25 3.625V12.375C14.25 12.8723 14.0525 13.3492 13.7008 13.7008C13.3492 14.0525 12.8723 14.25 12.375 14.25H3.625C3.12772 14.25 2.65081 14.0525 2.29917 13.7008C1.94754 13.3492 1.75 12.8723 1.75 12.375Z" fill="#666666"/>
</svg>
