<svg width="20" height="20" viewBox="0 0 20 20" fill="none" xmlns="http://www.w3.org/2000/svg">
<path d="M6.66669 1.66663H3.33335C2.41288 1.66663 1.66669 2.41282 1.66669 3.33329V16.6666C1.66669 17.5871 2.41288 18.3333 3.33335 18.3333H6.66669C7.58716 18.3333 8.33335 17.5871 8.33335 16.6666V3.33329C8.33335 2.41282 7.58716 1.66663 6.66669 1.66663Z" stroke="#616161" stroke-width="1.33333" stroke-linecap="round" stroke-linejoin="round"/>
<path d="M16.6667 1.66663H13.3334C12.4129 1.66663 11.6667 2.41282 11.6667 3.33329V6.66663C11.6667 7.5871 12.4129 8.33329 13.3334 8.33329H16.6667C17.5872 8.33329 18.3334 7.5871 18.3334 6.66663V3.33329C18.3334 2.41282 17.5872 1.66663 16.6667 1.66663Z" stroke="#616161" stroke-width="1.33333" stroke-linecap="round" stroke-linejoin="round"/>
<path d="M16.6667 11.6666H13.3334C12.4129 11.6666 11.6667 12.4128 11.6667 13.3333V16.6666C11.6667 17.5871 12.4129 18.3333 13.3334 18.3333H16.6667C17.5872 18.3333 18.3334 17.5871 18.3334 16.6666V13.3333C18.3334 12.4128 17.5872 11.6666 16.6667 11.6666Z" stroke="#616161" stroke-width="1.33333" stroke-linecap="round" stroke-linejoin="round"/>
</svg>
