<svg width="20" height="20" viewBox="0 0 20 20" fill="none" xmlns="http://www.w3.org/2000/svg">
<path d="M10 1.66669C5.40502 1.66669 1.66669 5.40502 1.66669 10C1.66669 14.595 5.40502 18.3334 10 18.3334C14.595 18.3334 18.3334 14.595 18.3334 10C18.3334 5.40502 14.595 1.66669 10 1.66669ZM10 16.6667C6.32419 16.6667 3.33335 13.6759 3.33335 10C3.33335 6.32419 6.32419 3.33335 10 3.33335C13.6759 3.33335 16.6667 6.32419 16.6667 10C16.6667 13.6759 13.6759 16.6667 10 16.6667Z" fill="white"/>
<path d="M10.8334 5.83331H9.16669V10.8333H14.1667V9.16665H10.8334V5.83331Z" fill="white"/>
</svg>
