<svg width="20" height="15" viewBox="0 0 20 15" fill="none" xmlns="http://www.w3.org/2000/svg">
<path d="M8.33335 1.16667H2.50002C2.27901 1.16667 2.06704 1.25447 1.91076 1.41075C1.75448 1.56703 1.66669 1.77899 1.66669 2.00001V12.8333C1.66669 13.0544 1.75448 13.2663 1.91076 13.4226C2.06704 13.5789 2.27901 13.6667 2.50002 13.6667H17.5C17.721 13.6667 17.933 13.5789 18.0893 13.4226C18.2456 13.2663 18.3334 13.0544 18.3334 12.8333V11.7917" stroke="#616161" stroke-width="1.66667" stroke-linecap="round" stroke-linejoin="round"/>
<path d="M4.16669 6.58334H7.50002M4.16669 9.91668H14.1667" stroke="#616161" stroke-width="1.66667" stroke-linecap="round"/>
<path d="M14.1667 6.16667C15.5474 6.16667 16.6667 5.04738 16.6667 3.66667C16.6667 2.28596 15.5474 1.16667 14.1667 1.16667C12.786 1.16667 11.6667 2.28596 11.6667 3.66667C11.6667 5.04738 12.786 6.16667 14.1667 6.16667Z" stroke="#616161" stroke-width="1.66667" stroke-linecap="round" stroke-linejoin="round"/>
<path d="M18.3333 8.84126C17.5196 7.25084 15.8333 6.16667 14.1667 6.16667C12.5 6.16667 11.6696 6.63876 10.8125 7.41667" stroke="#616161" stroke-width="1.66667" stroke-linecap="round" stroke-linejoin="round"/>
</svg>
