<svg width="20" height="20" viewBox="0 0 20 20" fill="none" xmlns="http://www.w3.org/2000/svg">
<path d="M8.33335 4.16675H2.50002C2.27901 4.16675 2.06704 4.25455 1.91076 4.41083C1.75448 4.56711 1.66669 4.77907 1.66669 5.00008V15.8334C1.66669 16.0544 1.75448 16.2664 1.91076 16.4227C2.06704 16.579 2.27901 16.6667 2.50002 16.6667H17.5C17.721 16.6667 17.933 16.579 18.0893 16.4227C18.2456 16.2664 18.3334 16.0544 18.3334 15.8334V14.7917" stroke="white" stroke-width="1.66667" stroke-linecap="round" stroke-linejoin="round"/>
<path d="M4.16669 9.5835H7.50002M4.16669 12.9168H14.1667" stroke="white" stroke-width="1.66667" stroke-linecap="round"/>
<path d="M14.1667 9.16675C15.5474 9.16675 16.6667 8.04746 16.6667 6.66675C16.6667 5.28604 15.5474 4.16675 14.1667 4.16675C12.786 4.16675 11.6667 5.28604 11.6667 6.66675C11.6667 8.04746 12.786 9.16675 14.1667 9.16675Z" stroke="white" stroke-width="1.66667" stroke-linecap="round" stroke-linejoin="round"/>
<path d="M18.3333 11.8413C17.5196 10.2509 15.8333 9.16675 14.1667 9.16675C12.5 9.16675 11.6696 9.63883 10.8125 10.4167" stroke="white" stroke-width="1.66667" stroke-linecap="round" stroke-linejoin="round"/>
</svg>
