<svg width="20" height="20" viewBox="0 0 20 20" fill="none" xmlns="http://www.w3.org/2000/svg">
<path d="M7 9C7 8.46957 7.21071 7.96086 7.58579 7.58579C7.96086 7.21071 8.46957 7 9 7C9.53043 7 10.0391 7.21071 10.4142 7.58579C10.7893 7.96086 11 8.46957 11 9C11 9.53043 10.7893 10.0391 10.4142 10.4142C10.0391 10.7893 9.53043 11 9 11C8.46957 11 7.96086 10.7893 7.58579 10.4142C7.21071 10.0391 7 9.53043 7 9ZM9 8C8.73478 8 8.48043 8.10536 8.29289 8.29289C8.10536 8.48043 8 8.73478 8 9C8 9.26522 8.10536 9.51957 8.29289 9.70711C8.48043 9.89464 8.73478 10 9 10C9.26522 10 9.51957 9.89464 9.70711 9.70711C9.89464 9.51957 10 9.26522 10 9C10 8.73478 9.89464 8.48043 9.70711 8.29289C9.51957 8.10536 9.26522 8 9 8ZM3.5 4C3.10218 4 2.72064 4.15804 2.43934 4.43934C2.15804 4.72064 2 5.10218 2 5.5V12.5C2 12.8978 2.15804 13.2794 2.43934 13.5607C2.72064 13.842 3.10218 14 3.5 14H14.5C14.8978 14 15.2794 13.842 15.5607 13.5607C15.842 13.2794 16 12.8978 16 12.5V5.5C16 5.10218 15.842 4.72064 15.5607 4.43934C15.2794 4.15804 14.8978 4 14.5 4H3.5ZM3 5.5C3 5.36739 3.05268 5.24021 3.14645 5.14645C3.24021 5.05268 3.36739 5 3.5 5H5V6C5 6.26522 4.89464 6.51957 4.70711 6.70711C4.51957 6.89464 4.26522 7 4 7H3V5.5ZM3 8H4C4.53043 8 5.03914 7.78929 5.41421 7.41421C5.78929 7.03914 6 6.53043 6 6V5H12V6C12 6.53043 12.2107 7.03914 12.5858 7.41421C12.9609 7.78929 13.4696 8 14 8H15V10H14C13.4696 10 12.9609 10.2107 12.5858 10.5858C12.2107 10.9609 12 11.4696 12 12V13H6V12C6 11.4696 5.78929 10.9609 5.41421 10.5858C5.03914 10.2107 4.53043 10 4 10H3V8ZM13 5H14.5C14.6326 5 14.7598 5.05268 14.8536 5.14645C14.9473 5.24021 15 5.36739 15 5.5V7H14C13.7348 7 13.4804 6.89464 13.2929 6.70711C13.1054 6.51957 13 6.26522 13 6V5ZM15 11V12.5C15 12.6326 14.9473 12.7598 14.8536 12.8536C14.7598 12.9473 14.6326 13 14.5 13H13V12C13 11.7348 13.1054 11.4804 13.2929 11.2929C13.4804 11.1054 13.7348 11 14 11H15ZM5 13H3.5C3.36739 13 3.24021 12.9473 3.14645 12.8536C3.05268 12.7598 3 12.6326 3 12.5V11H4C4.26522 11 4.51957 11.1054 4.70711 11.2929C4.89464 11.4804 5 11.7348 5 12V13ZM17 12.5C17 13.163 16.7366 13.7989 16.2678 14.2678C15.7989 14.7366 15.163 15 14.5 15H4.085C4.18844 15.2926 4.38008 15.5459 4.63351 15.725C4.88694 15.9041 5.18967 16.0002 5.5 16H14.5C15.4283 16 16.3185 15.6313 16.9749 14.9749C17.6313 14.3185 18 13.4283 18 12.5V7.5C18.0002 7.18967 17.9041 6.88694 17.725 6.63351C17.5459 6.38008 17.2926 6.18844 17 6.085V12.5Z" fill="#616161"/>
</svg>
