<svg width="61" height="45" viewBox="0 0 61 45" fill="none" xmlns="http://www.w3.org/2000/svg">
<path d="M46.7797 16.0312L46.2018 15.8242L41.3071 6.64725C40.3878 4.92264 39.017 3.48036 37.3413 2.47464C35.6656 1.46893 33.7481 0.937604 31.7938 0.9375H19.4686C17.2053 0.937408 14.9994 1.64961 13.1634 2.97317C11.3274 4.29674 9.95458 6.16454 9.23938 8.31187L6.90631 15.3111C4.95169 16.1349 3.28352 17.517 2.11063 19.2844C0.937747 21.0518 0.312269 23.1259 0.3125 25.2471V30.0469C0.3125 33.1087 2.13669 35.7394 4.75437 36.9253C5.09336 38.8676 6.08756 40.635 7.57135 41.9334C9.05514 43.2317 10.939 43.9824 12.909 44.0606C14.8791 44.1387 16.8165 43.5396 18.3985 42.3629C19.9804 41.1862 21.1115 39.503 21.6033 37.5937H39.3967C39.8885 39.503 41.0196 41.1862 42.6015 42.3629C44.1835 43.5396 46.1209 44.1387 48.091 44.0606C50.061 43.9824 51.9449 43.2317 53.4286 41.9334C54.9124 40.635 55.9066 38.8676 56.2456 36.9253C57.5694 36.3278 58.6926 35.3609 59.4805 34.1409C60.2684 32.9208 60.6875 31.4992 60.6875 30.0469V28.5849C60.6872 26.3593 59.9981 24.1884 58.7148 22.37C57.4315 20.5517 55.617 19.175 53.5201 18.429L47.0083 16.1132V16.0312H46.7797ZM19.4686 5.25H24.0312V16.0312H11.2102L13.3276 9.67462C13.7569 8.38566 14.5812 7.26458 15.6834 6.47039C16.7857 5.6762 18.11 5.24922 19.4686 5.25ZM28.3438 5.25H31.7938C32.9665 5.24958 34.1172 5.56797 35.123 6.1711C36.1287 6.77424 36.9515 7.63943 37.5035 8.67412L41.4279 16.0312H28.3438V5.25ZM46.0379 20.3437L52.0754 22.4914C53.3334 22.9391 54.4219 23.7652 55.1917 24.8562C55.9615 25.9472 56.3749 27.2497 56.375 28.5849V30.0469C56.375 30.8016 56.1162 31.4959 55.685 32.0479C54.9786 30.3898 53.7706 28.9947 52.2306 28.0585C50.6906 27.1223 48.896 26.692 47.0989 26.8281C45.3018 26.9642 43.5925 27.6598 42.211 28.8172C40.8296 29.9746 39.8454 31.5357 39.3967 33.2812H21.6033C21.1546 31.5357 20.1704 29.9746 18.789 28.8172C17.4075 27.6598 15.6982 26.9642 13.9011 26.8281C12.104 26.692 10.3094 27.1223 8.76943 28.0585C7.22943 28.9947 6.0214 30.3898 5.315 32.0479C4.86619 31.4776 4.62306 30.7726 4.625 30.0469V25.2471C4.625 23.3064 5.4875 21.5383 6.8675 20.3437H46.0379ZM8.9375 35.4375C8.9375 34.2938 9.39185 33.1968 10.2006 32.3881C11.0094 31.5793 12.1063 31.125 13.25 31.125C14.3937 31.125 15.4906 31.5793 16.2994 32.3881C17.1081 33.1968 17.5625 34.2938 17.5625 35.4375C17.5625 36.5812 17.1081 37.6781 16.2994 38.4869C15.4906 39.2956 14.3937 39.75 13.25 39.75C12.1063 39.75 11.0094 39.2956 10.2006 38.4869C9.39185 37.6781 8.9375 36.5812 8.9375 35.4375ZM47.75 31.125C48.8937 31.125 49.9906 31.5793 50.7994 32.3881C51.6081 33.1968 52.0625 34.2938 52.0625 35.4375C52.0625 36.5812 51.6081 37.6781 50.7994 38.4869C49.9906 39.2956 48.8937 39.75 47.75 39.75C46.6063 39.75 45.5094 39.2956 44.7006 38.4869C43.8919 37.6781 43.4375 36.5812 43.4375 35.4375C43.4375 34.2938 43.8919 33.1968 44.7006 32.3881C45.5094 31.5793 46.6063 31.125 47.75 31.125Z" fill="#F24E1E"/>
</svg>
