<svg width="52" height="52" viewBox="0 0 52 52" fill="none" xmlns="http://www.w3.org/2000/svg">
<path d="M28.0312 25.875C28.0312 25.3031 27.8041 24.7547 27.3997 24.3503C26.9953 23.9459 26.4469 23.7188 25.875 23.7188C25.3031 23.7188 24.7547 23.9459 24.3503 24.3503C23.9459 24.7547 23.7188 25.3031 23.7188 25.875V30.1875H19.4062C18.8344 30.1875 18.2859 30.4147 17.8816 30.819C17.4772 31.2234 17.25 31.7719 17.25 32.3438C17.25 32.9156 17.4772 33.4641 17.8816 33.8685C18.2859 34.2728 18.8344 34.5 19.4062 34.5H23.7188V38.8125C23.7188 39.3844 23.9459 39.9328 24.3503 40.3372C24.7547 40.7416 25.3031 40.9688 25.875 40.9688C26.4469 40.9688 26.9953 40.7416 27.3997 40.3372C27.8041 39.9328 28.0312 39.3844 28.0312 38.8125V34.5H32.3438C32.9156 34.5 33.4641 34.2728 33.8685 33.8685C34.2728 33.4641 34.5 32.9156 34.5 32.3438C34.5 31.7719 34.2728 31.2234 33.8685 30.819C33.4641 30.4147 32.9156 30.1875 32.3438 30.1875H28.0312V25.875ZM12.9375 2.15625V12.9375H8.625C6.33751 12.9375 4.1437 13.8462 2.5262 15.4637C0.908702 17.0812 0 19.275 0 21.5625V43.125C0 45.4125 0.908702 47.6063 2.5262 49.2238C4.1437 50.8413 6.33751 51.75 8.625 51.75H43.125C45.4125 51.75 47.6063 50.8413 49.2238 49.2238C50.8413 47.6063 51.75 45.4125 51.75 43.125V21.5625C51.75 19.275 50.8413 17.0812 49.2238 15.4637C47.6063 13.8462 45.4125 12.9375 43.125 12.9375H38.8125V2.15625C38.8125 1.58438 38.5853 1.03593 38.181 0.631551C37.7766 0.227176 37.2281 0 36.6562 0H15.0938C14.5219 0 13.9734 0.227176 13.5691 0.631551C13.1647 1.03593 12.9375 1.58438 12.9375 2.15625ZM34.5 4.3125V12.9375H17.25V4.3125H34.5ZM8.625 17.25H43.125C44.2687 17.25 45.3656 17.7044 46.1744 18.5131C46.9831 19.3219 47.4375 20.4188 47.4375 21.5625V43.125C47.4375 44.2687 46.9831 45.3656 46.1744 46.1744C45.3656 46.9831 44.2687 47.4375 43.125 47.4375H8.625C7.48125 47.4375 6.38435 46.9831 5.5756 46.1744C4.76685 45.3656 4.3125 44.2687 4.3125 43.125V21.5625C4.3125 20.4188 4.76685 19.3219 5.5756 18.5131C6.38435 17.7044 7.48125 17.25 8.625 17.25Z" fill="#26BC6D" fill-opacity="0.66"/>
</svg>
