<svg width="48" height="65" viewBox="0 0 48 65" fill="none" xmlns="http://www.w3.org/2000/svg">
<path d="M41.9273 0.875H15.2606C12.3273 0.875 9.92731 3.4625 9.92731 6.625V12.375C9.92731 13.9563 11.1273 15.25 12.594 15.25C14.0606 15.25 15.2606 13.9563 15.2606 12.375V9.5H41.9273V55.5H15.2606V52.625C15.2606 51.0438 14.0606 49.75 12.594 49.75C11.1273 49.75 9.92731 51.0438 9.92731 52.625V58.375C9.92731 61.5375 12.3273 64.125 15.2606 64.125H41.9273C44.8606 64.125 47.2606 61.5375 47.2606 58.375V6.625C47.2606 3.4625 44.8606 0.875 41.9273 0.875ZM9.95398 36.7262L4.83398 31.2063C3.90065 30.2 2.38065 30.2 1.44731 31.2063C0.513981 32.2125 0.513981 33.8512 1.44731 34.8575L8.03398 41.9588C9.07398 43.08 10.754 43.08 11.794 41.9588L27.394 25.14C28.3273 24.1337 28.3273 22.495 27.394 21.4888C26.4606 20.4825 24.9406 20.4825 24.0073 21.4888L9.95398 36.7262Z" fill="#5D5FEF"/>
</svg>
